<svg width="18" height="18" viewBox="0 0 18 18" fill="none" xmlns="http://www.w3.org/2000/svg">
<path fill-rule="evenodd" clip-rule="evenodd" d="M6 9C6 7.34314 7.34314 6 9 6C10.6568 6 12 7.34314 12 9C12 10.6568 10.6568 12 9 12C7.34314 12 6 10.6568 6 9Z" fill="#5E5E5E"/>
<path fill-rule="evenodd" clip-rule="evenodd" d="M9 0C9.5523 0 10 0.44772 10 1V3C10 3.55228 9.5523 4 9 4C8.4477 4 8 3.55228 8 3V1C8 0.44772 8.4477 0 9 0Z" fill="#5E5E5E"/>
<path fill-rule="evenodd" clip-rule="evenodd" d="M15.7071 2.29289C16.0976 2.68342 16.0976 3.31658 15.7071 3.70711L13.7071 5.70711C13.3166 6.09763 12.6834 6.09763 12.2929 5.70711C11.9024 5.31658 11.9024 4.68342 12.2929 4.29289L14.2929 2.29289C14.6834 1.90237 15.3166 1.90237 15.7071 2.29289Z" fill="#5E5E5E"/>
<path fill-rule="evenodd" clip-rule="evenodd" d="M14 9C14 8.4477 14.4477 8 15 8H17C17.5523 8 18 8.4477 18 9C18 9.5523 17.5523 10 17 10H15C14.4477 10 14 9.5523 14 9Z" fill="#5E5E5E"/>
<path fill-rule="evenodd" clip-rule="evenodd" d="M12.2929 12.2929C12.6834 11.9024 13.3166 11.9024 13.7071 12.2929L15.7071 14.2929C16.0976 14.6834 16.0976 15.3166 15.7071 15.7071C15.3166 16.0976 14.6834 16.0976 14.2929 15.7071L12.2929 13.7071C11.9024 13.3166 11.9024 12.6834 12.2929 12.2929Z" fill="#5E5E5E"/>
<path fill-rule="evenodd" clip-rule="evenodd" d="M9 14C9.5523 14 10 14.4477 10 15V17C10 17.5523 9.5523 18 9 18C8.4477 18 8 17.5523 8 17V15C8 14.4477 8.4477 14 9 14Z" fill="#5E5E5E"/>
<path fill-rule="evenodd" clip-rule="evenodd" d="M5.70711 12.2929C6.09763 12.6834 6.09763 13.3166 5.70711 13.7071L3.70711 15.7071C3.31658 16.0976 2.68342 16.0976 2.29289 15.7071C1.90237 15.3166 1.90237 14.6834 2.29289 14.2929L4.29289 12.2929C4.68342 11.9024 5.31658 11.9024 5.70711 12.2929Z" fill="#5E5E5E"/>
<path fill-rule="evenodd" clip-rule="evenodd" d="M0 9C0 8.4477 0.44772 8 1 8H3C3.55228 8 4 8.4477 4 9C4 9.5523 3.55228 10 3 10H1C0.44772 10 0 9.5523 0 9Z" fill="#5E5E5E"/>
<path fill-rule="evenodd" clip-rule="evenodd" d="M2.29289 2.29289C2.68342 1.90237 3.31658 1.90237 3.70711 2.29289L5.70711 4.29289C6.09763 4.68342 6.09763 5.31658 5.70711 5.70711C5.31658 6.09763 4.68342 6.09763 4.29289 5.70711L2.29289 3.70711C1.90237 3.31658 1.90237 2.68342 2.29289 2.29289Z" fill="#5E5E5E"/>
</svg>
