<svg width="16" height="15" viewBox="0 0 16 15" fill="none" xmlns="http://www.w3.org/2000/svg">
<path d="M11.9204 13.5938C12.1391 14.0938 11.8892 14.6876 11.3893 14.9063C11.2643 14.9688 11.1394 15.0001 11.0144 15.0001C10.6082 15.0001 10.2333 14.7501 10.0771 14.3751L9.07737 12.0001H2.92263L1.92288 14.3751C1.70418 14.8751 1.14182 15.1251 0.610697 14.9063C0.11082 14.6876 -0.139119 14.1251 0.0795772 13.5938L5.07835 1.59381C5.23456 1.21881 5.60947 1.00006 6.01562 1.00006C6.39053 1.00006 6.76544 1.21881 6.92165 1.59381L11.9204 13.5938ZM3.73493 9.96881H8.26507L6.01562 4.59381L3.73493 9.96881Z" fill="#5E5E5E"/>
<path d="M15.9668 5.39732C16.058 5.61161 15.9538 5.86607 15.7455 5.95982C15.6935 5.98661 15.6414 6 15.5893 6C15.4201 6 15.2639 5.89286 15.1988 5.73214L14.7822 4.71429H12.2178L11.8012 5.73214C11.7101 5.94643 11.4758 6.05357 11.2545 5.95982C11.0462 5.86607 10.942 5.625 11.0332 5.39732L13.116 0.254464C13.1811 0.09375 13.3373 0 13.5065 0C13.6627 0 13.8189 0.09375 13.884 0.254464L15.9668 5.39732ZM12.5562 3.84375H14.4438L13.5065 1.54018L12.5562 3.84375Z" fill="#5E5E5E"/>
</svg>
