<svg width="16" height="16" viewBox="0 0 16 16" fill="none" xmlns="http://www.w3.org/2000/svg">
<path fill-rule="evenodd" clip-rule="evenodd" d="M2.00154 7.00538C2.00154 5.67828 2.52873 4.40553 3.46713 3.46713C4.40553 2.52873 5.67828 2.00154 7.00538 2.00154C8.33248 2.00154 9.60523 2.52873 10.5436 3.46713C11.482 4.40553 12.0092 5.67828 12.0092 7.00538C12.0092 8.33248 11.482 9.60523 10.5436 10.5436C9.60523 11.482 8.33248 12.0092 7.00538 12.0092C5.67828 12.0092 4.40553 11.482 3.46713 10.5436C2.52873 9.60523 2.00154 8.33248 2.00154 7.00538ZM7.00538 0C5.89537 0 4.80124 0.263775 3.81316 0.769588C2.82509 1.2754 1.97136 2.00877 1.32232 2.90926C0.673284 3.80975 0.247521 4.85159 0.0801216 5.94891C-0.0872783 7.04623 0.00847618 8.16762 0.359494 9.22068C0.710512 10.2737 1.30674 11.2283 2.09906 12.0057C2.89137 12.7831 3.85708 13.3611 4.9166 13.6921C5.97613 14.0231 7.09914 14.0975 8.19308 13.9093C9.28703 13.7211 10.3206 13.2757 11.2086 12.6097C11.2371 12.6475 11.2682 12.6833 11.3017 12.7168L14.304 15.7191C14.4927 15.9014 14.7455 16.0022 15.0079 16C15.2703 15.9977 15.5213 15.8924 15.7069 15.7069C15.8924 15.5213 15.9977 15.2703 16 15.0079C16.0022 14.7455 15.9014 14.4927 15.7191 14.304L12.7168 11.3017C12.6833 11.2682 12.6475 11.2371 12.6097 11.2086C13.3903 10.1678 13.8656 8.93023 13.9825 7.6345C14.0993 6.33878 13.853 5.03611 13.2712 3.87248C12.6894 2.70884 11.795 1.73021 10.6883 1.04625C9.58164 0.362281 8.30636 0 7.00538 0Z" fill="#5E5E5E"/>
</svg>
