<svg width="16" height="18" viewBox="0 0 16 18" fill="none" xmlns="http://www.w3.org/2000/svg">
<path d="M8.32587 0.000153381H6.41897C6.1661 0.000153381 5.92359 0.0989244 5.74478 0.274738C5.56597 0.450551 5.46552 0.689006 5.46552 0.937644C5.46552 1.18628 5.56597 1.42474 5.74478 1.60055C5.92359 1.77636 6.1661 1.87513 6.41897 1.87513V3.75012H5.28981C5.40285 3.4499 5.4623 3.13274 5.46552 2.81262C5.46556 2.19348 5.2578 1.59162 4.87448 1.1004C4.49117 0.60919 3.95371 0.256076 3.34548 0.0958306C2.73725 -0.0644145 2.09223 -0.0228337 1.51048 0.214124C0.928736 0.451081 0.442768 0.870171 0.127958 1.40639C0.0652778 1.51303 0.0245816 1.63078 0.00819449 1.75289C-0.00819264 1.87501 5.05123e-05 1.9991 0.0324529 2.11808C0.0648553 2.23706 0.120782 2.3486 0.197038 2.44632C0.273293 2.54404 0.368384 2.62604 0.476876 2.68761C0.585369 2.74919 0.705137 2.78914 0.829339 2.80519C0.95354 2.82125 1.07974 2.81308 1.20073 2.78116C1.32172 2.74923 1.43513 2.69419 1.53448 2.61916C1.63382 2.54413 1.71716 2.45059 1.77973 2.34388C1.86352 2.20151 1.98386 2.08328 2.12873 2.00101C2.27359 1.91875 2.43789 1.87534 2.60518 1.87513C2.85805 1.87513 3.10056 1.97391 3.27937 2.14972C3.45817 2.32553 3.55863 2.56399 3.55863 2.81262C3.55863 3.06126 3.45817 3.29972 3.27937 3.47553C3.10056 3.65134 2.85805 3.75012 2.60518 3.75012C2.35231 3.75012 2.10979 3.84889 1.93099 4.0247C1.75218 4.20051 1.65173 4.43897 1.65173 4.68761C1.65173 4.93624 1.75218 5.1747 1.93099 5.35051C2.10979 5.52632 2.35231 5.6251 2.60518 5.6251C2.85805 5.6251 3.10056 5.72387 3.27937 5.89968C3.45817 6.07549 3.55863 6.31395 3.55863 6.56259C3.55863 6.81122 3.45817 7.04968 3.27937 7.22549C3.10056 7.40131 2.85805 7.50008 2.60518 7.50008C2.43789 7.49986 2.2736 7.45645 2.12874 7.37419C1.98389 7.29193 1.86354 7.1737 1.77976 7.03133C1.71719 6.92462 1.63385 6.83108 1.5345 6.75605C1.43516 6.68102 1.32175 6.62598 1.20076 6.59405C1.07977 6.56213 0.953569 6.55396 0.829367 6.57002C0.705166 6.58607 0.585397 6.62602 0.476905 6.6876C0.368412 6.74917 0.273322 6.83117 0.197066 6.92889C0.12081 7.02661 0.0648837 7.13815 0.0324813 7.25713C7.89275e-05 7.37611 -0.00816399 7.5002 0.00822314 7.62232C0.0246103 7.74443 0.0653065 7.86218 0.127987 7.96882C0.442803 8.50503 0.92877 8.9241 1.51051 9.16105C2.09225 9.398 2.73726 9.43957 3.34548 9.27933C3.95371 9.11909 4.49115 8.76598 4.87447 8.27478C5.25779 7.78357 5.46555 7.18173 5.46552 6.56259C5.4623 6.24247 5.40287 5.92531 5.28984 5.6251H6.41897V8.43757C6.41897 8.68621 6.51942 8.92466 6.69823 9.10047C6.87703 9.27629 7.11955 9.37506 7.37242 9.37506C7.62529 9.37506 7.8678 9.27629 8.04661 9.10047C8.22541 8.92466 8.32587 8.68621 8.32587 8.43757V1.87513C8.57874 1.87513 8.82125 1.77636 9.00006 1.60055C9.17886 1.42474 9.27931 1.18628 9.27931 0.937644C9.27931 0.689006 9.17886 0.450551 9.00006 0.274738C8.82125 0.0989244 8.57874 0.000153381 8.32587 0.000153381ZM11.1862 4.68761H12.1397C12.3924 4.68793 12.6347 4.7868 12.8135 4.96255C12.9922 5.13829 13.0928 5.37656 13.0931 5.6251V6.56259C13.0931 6.81122 13.1936 7.04968 13.3724 7.22549C13.5512 7.40131 13.7937 7.50008 14.0466 7.50008C14.2994 7.50008 14.5419 7.40131 14.7207 7.22549C14.8995 7.04968 15 6.81122 15 6.56259V5.6251C14.9992 4.87943 14.6975 4.16454 14.1613 3.63728C13.6251 3.11001 12.898 2.81344 12.1397 2.81262H11.1862C10.9333 2.81262 10.6908 2.9114 10.512 3.08721C10.3332 3.26302 10.2328 3.50148 10.2328 3.75012C10.2328 3.99875 10.3332 4.23721 10.512 4.41302C10.6908 4.58883 10.9333 4.68761 11.1862 4.68761ZM7.37242 13.125H6.41897C6.1662 13.1247 5.92388 13.0258 5.74514 12.8501C5.56641 12.6743 5.46585 12.4361 5.46552 12.1875V11.25C5.46552 11.0014 5.36507 10.7629 5.18626 10.5871C5.00746 10.4113 4.76494 10.3125 4.51207 10.3125C4.2592 10.3125 4.01669 10.4113 3.83788 10.5871C3.65908 10.7629 3.55863 11.0014 3.55863 11.25V12.1875C3.55945 12.9332 3.86108 13.6481 4.39732 14.1753C4.93355 14.7026 5.66061 14.9992 6.41897 15H7.37242C7.62529 15 7.8678 14.9012 8.04661 14.7254C8.22541 14.5496 8.32587 14.3111 8.32587 14.0625C8.32587 13.8139 8.22541 13.5754 8.04661 13.3996C7.8678 13.2238 7.62529 13.125 7.37242 13.125Z" fill="#5E5E5E"/>
<path d="M15.9469 17.096C16.0927 17.4174 15.9261 17.7991 15.5929 17.9397C15.5096 17.9799 15.4262 18 15.3429 18C15.0722 18 14.8222 17.8393 14.7181 17.5982L14.0516 16.0714H9.94842L9.28192 17.5982C9.13612 17.9196 8.76121 18.0804 8.40713 17.9397C8.07388 17.7991 7.90725 17.4375 8.05305 17.096L11.3856 9.3817C11.4897 9.14063 11.7396 9 12.0104 9C12.2604 9 12.5103 9.14063 12.6144 9.3817L15.9469 17.096ZM10.49 14.7656H13.51L12.0104 11.3103L10.49 14.7656Z" fill="#5E5E5E"/>
<path fill-rule="evenodd" clip-rule="evenodd" d="M9.57162 17.5077C9.39312 17.9035 8.93254 18.1008 8.50263 17.9291L8.49901 17.9276C8.09484 17.7561 7.88485 17.307 8.06509 16.8824L8.06539 16.8817L11.2462 9.47599C11.3784 9.16808 11.6902 9 12.0099 9C12.3129 9 12.6226 9.17077 12.7537 9.47599L15.9339 16.8803C16.1158 17.286 15.9057 17.7531 15.5051 17.9258C15.4048 17.9738 15.2995 18 15.1907 18C14.8611 18 14.5558 17.8042 14.4271 17.505C14.4271 17.5049 14.4272 17.5051 14.4271 17.505L13.8384 16.1486H10.1615L9.57162 17.5077ZM10.0418 15.9686H13.9581L14.5943 17.4343C14.6937 17.6657 14.9323 17.82 15.1907 17.82C15.2702 17.82 15.3497 17.8007 15.4293 17.7621C15.7473 17.6271 15.9064 17.2607 15.7672 16.9521L12.5864 9.54643C12.487 9.315 12.2485 9.18 12.0099 9.18C11.7515 9.18 11.5129 9.315 11.4135 9.54643L8.23269 16.9521C8.09353 17.28 8.25257 17.6271 8.57065 17.7621C8.90862 17.8971 9.26646 17.7429 9.40562 17.4343L10.0418 15.9686ZM13.4413 14.715L12.0099 11.3979L10.5587 14.715H13.4413ZM10.8355 14.535H13.1659L12.0087 11.8534L10.8355 14.535Z" fill="#5E5E5E"/>
</svg>
