<svg width="53" height="53" viewBox="0 0 53 53" fill="none" xmlns="http://www.w3.org/2000/svg">
<rect x="0.5" y="0.5" width="52" height="52" rx="26" fill="#FAFAFA" stroke="#CCCCCC"/>
<path d="M26.5 26C29.5376 26 32 23.5376 32 20.5C32 17.4624 29.5376 15 26.5 15C23.4624 15 21 17.4624 21 20.5C21 23.5376 23.4624 26 26.5 26Z" fill="#5D5D5D"/>
<path d="M17.398 33.1723C18.3012 29.1813 22.0894 27 26.0117 27H26.9883C30.9106 27 34.6988 29.1813 35.602 33.1723C35.7768 33.9444 35.9157 34.7526 35.9938 35.5737C36.0686 36.3589 35.452 37 34.6974 37H18.3026C17.548 37 16.9314 36.3589 17.0061 35.5737C17.0843 34.7526 17.2232 33.9444 17.398 33.1723Z" fill="#5D5D5D"/>
</svg>
